<?xml version="1.0" encoding="UTF-8"?>
<svg width="59px" height="69px" viewBox="0 0 59 69" version="1.1" xmlns="http://www.w3.org/2000/svg" xmlns:xlink="http://www.w3.org/1999/xlink">
    <title>Combined Shape</title>
    <g id="Page-1" stroke="none" stroke-width="1" fill="none" fill-rule="evenodd">
        <path d="M30.6824105,8.66515899 C33.9256784,0.934660213 39.1861996,-1.45908959 46.2910708,2.04226742 C51.3517478,4.53622348 52.5103232,8.06902886 48.9752875,11.4910181 C48.0461743,12.3904194 46.769385,13.3024884 45.1411491,14.2315642 L45.1411491,14.2315642 L44.5140792,14.5807732 C44.08504,14.814122 43.634006,15.0485676 43.1609182,15.2841779 L43.1609182,15.2841779 L42.4347388,15.6384751 L41.6754345,15.9945702 L40.8829611,16.3525138 C40.7481157,16.412328 40.6118864,16.4722213 40.4742722,16.5321948 L40.4742722,16.5321948 L39.6319624,16.8930067 L39.373,16.9996216 L58,17 C58.5522847,17 59,17.4477153 59,18 L59,22 C59,22.5522847 58.5522847,23 58,23 C57.4477153,23 57,23.4477153 57,24 L57,59 C57,60.1045695 56.1045695,61 55,61 L35,61 L29.5,68.5 L24,61 L4,61 C2.8954305,61 2,60.1045695 2,59 L2,24 C2,23.4477153 1.55228475,23 1,23 C0.44771525,23 -5.82075933e-11,22.5522847 -5.82076609e-11,22 L-5.82076609e-11,18 C-5.82077285e-11,17.4477153 0.44771525,17 1,17 L19.642,16.9996216 L19.384579,16.8930067 L18.5422692,16.5321948 C18.4046551,16.4722213 18.2684257,16.412328 18.1335803,16.3525138 L17.3411069,15.9945702 L16.5818026,15.6384751 L15.8556232,15.2841779 C15.3825354,15.0485676 14.9315014,14.814122 14.5024623,14.5807732 L13.8753923,14.2315642 C12.2471564,13.3024884 10.9703671,12.3904194 10.0412539,11.4910181 C6.50621821,8.06902886 7.66479366,4.53622348 12.7254706,2.04226742 C19.8303419,-1.45908959 25.090863,0.934660213 28.3341309,8.66515899 L28.5926746,9.30364001 C28.6350273,9.41199898 28.6770108,9.52132977 28.7186246,9.63163099 L28.9638682,10.3050725 C29.1537849,10.8453747 29.3354046,11.4073463 29.5086822,11.9908411 C29.6808291,11.4082985 29.8625956,10.8458325 30.0526732,10.3050725 L30.0526732,10.3050725 L30.2979168,9.63163099 C30.3395306,9.52132977 30.3815141,9.41199898 30.4238668,9.30364001 L30.4238668,9.30364001 Z M32,23 L27,23 L27,36 L6.5,36 L6.5,41 L27,41 L27,55 L32,55 L32,41 L52.5,41 L52.5,36 L32,36 L32,23 Z M44.9649292,4.73324278 C39.7804418,2.17827162 35.9980968,3.64865948 33.4647217,9.63904804 L33.4647217,9.63904804 L33.2378513,10.1960944 C33.1633718,10.3859363 33.0900351,10.5799425 33.0178367,10.7781269 L33.0178367,10.7781269 L32.8046523,11.3852281 C32.7696893,11.4885053 32.7350099,11.5928305 32.7006134,11.6982054 L32.7006134,11.6982054 L32.4976265,12.3430646 C32.3312935,12.8909672 32.1720087,13.4651981 32.0197056,14.0659724 L32.0197056,14.0659724 L31.8402888,14.7996562 L31.6675487,15.5589043 C31.6393137,15.6875806 31.6113558,15.8173255 31.5836745,15.9481407 L31.5836745,15.9481407 L31.413,16.7804444 L32.8034216,16.2982855 L33.82134,15.9341298 L34.8048557,15.5728727 L35.7539213,15.2145687 C35.9092254,15.1551004 36.0630921,15.0957575 36.2155204,15.0365411 L36.2155204,15.0365411 L37.112822,14.6827688 L37.9755552,14.3320857 L38.8036725,13.9845464 L39.5971266,13.6402053 C39.7264778,13.5830846 39.8543826,13.5260995 39.9808402,13.4692511 L39.9808402,13.4692511 L40.7222109,13.1298094 L41.4288,12.7937022 C41.5436637,12.7379652 41.6570763,12.6823694 41.7690367,12.626916 L41.7690367,12.626916 L42.4233648,12.2959124 C42.5295124,12.2410329 42.6342059,12.186298 42.7374443,12.1317088 L42.7374443,12.1317088 L43.3394048,11.8059316 L43.9063944,11.4837067 C45.0969527,10.7894404 46.0409242,10.1205719 46.7361421,9.47959463 L46.7361421,9.47959463 L46.8887125,9.33551248 C48.5204763,7.75593061 48.409384,6.6722641 46.0042574,5.28392828 L46.0042574,5.28392828 L45.6160647,5.06782648 L45.1912282,4.84626945 Z M14.2863056,4.61988174 L14.0516122,4.73324278 L13.8253132,4.84626945 L13.4004767,5.06782648 L13.012284,5.28392828 C10.6071574,6.6722641 10.4960651,7.75593061 12.1278289,9.33551248 L12.2803994,9.47959463 C12.9756173,10.1205719 13.9195888,10.7894404 15.110147,11.4837067 L15.6771366,11.8059316 L16.2790971,12.1317088 C16.3823355,12.186298 16.487029,12.2410329 16.5931767,12.2959124 L17.2475047,12.626916 C17.3594651,12.6823694 17.4728777,12.7379652 17.5877414,12.7937022 L18.2943306,13.1298094 L19.0357012,13.4692511 C19.1621588,13.5260995 19.2900637,13.5830846 19.4194148,13.6402053 L20.2128689,13.9845464 L21.0409863,14.3320857 L21.9037194,14.6827688 L22.801021,15.0365411 C22.9534493,15.0957575 23.1073161,15.1551004 23.2626202,15.2145687 L24.2116857,15.5728727 L25.1952014,15.9341298 L26.2131198,16.2982855 L27.6035414,16.7804444 L27.4328669,15.9481407 C27.4051856,15.8173255 27.3772277,15.6875806 27.3489927,15.5589043 L27.1762527,14.7996562 L26.9968358,14.0659724 C26.8445327,13.4651981 26.6852479,12.8909672 26.518915,12.3430646 L26.315928,11.6982054 C26.2815315,11.5928305 26.2468521,11.4885053 26.2118891,11.3852281 L25.9987048,10.7781269 C25.9265064,10.5799425 25.8531696,10.3859363 25.7786902,10.1960944 L25.5518198,9.63904804 C23.0568291,3.73942294 19.3504294,2.22386648 14.2863056,4.61988174 Z" id="Combined-Shape" fill="#fff"></path>
    </g>
</svg>
